<?xml version="1.0" encoding="UTF-8" standalone="no"?>
<!-- Created with Inkscape (http://www.inkscape.org/) -->

<svg
   width="1000.0001"
   height="1000.0001"
   viewBox="0 0 264.58335 264.58335"
   version="1.1"
   id="svg1"
   xmlns:xlink="http://www.w3.org/1999/xlink"
   xmlns="http://www.w3.org/2000/svg"
   xmlns:svg="http://www.w3.org/2000/svg">
  <defs
     id="defs1">
    <linearGradient
       id="swatch703"
       gradientTransform="matrix(0,-0.76715804,0.76715804,0,-3245.9928,2848.2138)">
      <stop
         style="stop-color:#016daf;stop-opacity:1;"
         offset="0"
         id="stop703" />
    </linearGradient>
    <linearGradient
       xlink:href="#swatch703"
       id="linearGradient3"
       gradientUnits="userSpaceOnUse"
       gradientTransform="matrix(0.98543815,0,0,1.5253539,-2014.3893,-6410.2746)"
       x1="2277.5183"
       y1="4294.4434"
       x2="2617.1062"
       y2="4294.4434" />
    <linearGradient
       id="swatch828"
       gradientTransform="matrix(0.11011881,0,0,0.0778889,34.50011,63.217044)">
      <stop
         style="stop-color:#ede4d9;stop-opacity:1;"
         offset="0"
         id="stop828" />
    </linearGradient>
    <linearGradient
       xlink:href="#swatch703"
       id="linearGradient38"
       gradientUnits="userSpaceOnUse"
       gradientTransform="matrix(1.0493295,0,0,1.0493295,-2023.4969,-4372.2258)"
       x1="2277.5183"
       y1="4294.4434"
       x2="2617.1062"
       y2="4294.4434" />
  </defs>
  <g
     id="layer1">
    <g
       id="g61"
       transform="matrix(1.3835318,0,0,1.3835318,-12.979169,54.244054)">
      <circle
         style="opacity:1;fill:url(#swatch828);stroke-width:0.527816;stroke-miterlimit:0"
         id="path1"
         cx="105"
         cy="56.411869"
         r="95.618813" />
      <g
         id="g1"
         transform="matrix(1.3814158,0,0,1.3814158,-53.295037,-26.330504)">
        <path
           id="path20"
           style="font-weight:800;font-size:22.5214px;line-height:1;font-family:Montserrat;-inkscape-font-specification:'Montserrat Ultra-Bold';text-align:end;letter-spacing:0.343958px;text-anchor:end;fill:url(#linearGradient3);stroke-width:50.7344;stroke-miterlimit:0"
           d="M 123.6418,-5.6740654 V 9.1809494 C 109.88348,3.568372 93.745148,4.9785846 80.976039,13.919609 l 9.791659,13.990615 C 96.309278,24.029967 102.80652,22.420089 109.11295,22.978813 98.383808,29.495871 90.492668,40.396379 88.190787,53.450949 L 105,56.411868 c 1.82186,-10.33231 9.13705,-18.428882 18.6418,-21.530064 V 47.816747 120.3645 h 17.09091 V 47.816747 34.807671 c 9.61131,3.046485 17.02067,11.191098 18.85678,21.604197 l 16.80918,-2.960919 c -2.30205,-13.055518 -10.18978,-23.957924 -20.91772,-30.475101 6.30781,-0.560092 12.80665,1.049681 18.34824,4.929926 l 9.79166,-13.980235 C 170.78368,4.936877 154.54026,3.5597313 140.73271,9.2758426 v -14.949908 z" />
        <path
           style="font-weight:800;font-size:21.1667px;line-height:1;font-family:Montserrat;-inkscape-font-specification:'Montserrat Ultra-Bold';text-align:end;letter-spacing:1.23825px;text-anchor:end;fill:url(#linearGradient38);stroke-width:43.4227;stroke-miterlimit:0"
           d="M 60.660706,106.97524 59.710496,87.798328 85.711612,59.896791 h 18.831368 l -25.914738,28.074281 -9.502066,9.934004 z m -15.2897,13.38926 V 59.896791 h 16.93096 V 120.3645 Z m 40.599746,0 L 66.275556,95.399977 77.418906,83.479189 105.83871,120.3645 Z"
           id="path37" />
      </g>
    </g>
  </g>
</svg>
