<?xml version="1.0" encoding="UTF-8" standalone="no"?>
<!-- Created with Inkscape (http://www.inkscape.org/) -->

<svg
   width="836.65552"
   height="336.30219"
   viewBox="0 0 221.3651 88.979952"
   version="1.1"
   id="svg1"
   xmlns:xlink="http://www.w3.org/1999/xlink"
   xmlns="http://www.w3.org/2000/svg"
   xmlns:svg="http://www.w3.org/2000/svg">
  <defs
     id="defs1">
    <linearGradient
       id="swatch703"
       gradientTransform="matrix(0.76715803,0,0,0.76715803,-2941.0132,-3161.7533)">
      <stop
         style="stop-color:#016daf;stop-opacity:1;"
         offset="0"
         id="stop703" />
    </linearGradient>
    <linearGradient
       xlink:href="#swatch703"
       id="linearGradient38"
       gradientUnits="userSpaceOnUse"
       gradientTransform="matrix(0.24947919,0,0,0.24947919,-466.87555,-1020.9106)"
       x1="2277.5183"
       y1="4294.4434"
       x2="2617.1062"
       y2="4294.4434" />
    <linearGradient
       xlink:href="#swatch703"
       id="linearGradient39"
       gradientUnits="userSpaceOnUse"
       gradientTransform="matrix(0.24808623,0,0,0.24808623,-464.44077,-1016.8787)"
       x1="2277.5183"
       y1="4294.4434"
       x2="2617.1062"
       y2="4294.4434" />
    <linearGradient
       xlink:href="#swatch703"
       id="linearGradient3"
       gradientUnits="userSpaceOnUse"
       gradientTransform="matrix(0.24824696,0,0,0.38426001,-464.56947,-1597.3054)"
       x1="2277.5183"
       y1="4294.4434"
       x2="2617.1062"
       y2="4294.4434" />
    <linearGradient
       id="swatch828"
       gradientTransform="matrix(0.08323941,0,0,0.05887665,-4.515338e-6,2.9023726e-6)">
      <stop
         style="stop-color:#ede4d9;stop-opacity:1;"
         offset="0"
         id="stop828" />
    </linearGradient>
    <linearGradient
       xlink:href="#swatch703"
       id="linearGradient49"
       gradientUnits="userSpaceOnUse"
       gradientTransform="matrix(0.24947919,0,0,0.24947919,-466.87555,-1020.9106)"
       x1="2277.5183"
       y1="4294.4434"
       x2="2617.1062"
       y2="4294.4434" />
    <linearGradient
       xlink:href="#swatch703"
       id="linearGradient50"
       gradientUnits="userSpaceOnUse"
       gradientTransform="matrix(0.24947919,0,0,0.24947919,-466.87555,-1020.9106)"
       x1="2277.5183"
       y1="4294.4434"
       x2="2617.1062"
       y2="4294.4434" />
    <linearGradient
       xlink:href="#swatch703"
       id="linearGradient51"
       gradientUnits="userSpaceOnUse"
       gradientTransform="matrix(0.24947919,0,0,0.24947919,-466.87555,-1020.9106)"
       x1="2277.5183"
       y1="4294.4434"
       x2="2617.1062"
       y2="4294.4434" />
    <linearGradient
       xlink:href="#swatch703"
       id="linearGradient52"
       gradientUnits="userSpaceOnUse"
       gradientTransform="matrix(0.24947919,0,0,0.24947919,-466.87555,-1020.9106)"
       x1="2277.5183"
       y1="4294.4434"
       x2="2617.1062"
       y2="4294.4434" />
    <linearGradient
       xlink:href="#swatch703"
       id="linearGradient53"
       gradientUnits="userSpaceOnUse"
       gradientTransform="matrix(0.24947919,0,0,0.24947919,-466.87555,-1020.9106)"
       x1="2277.5183"
       y1="4294.4434"
       x2="2617.1062"
       y2="4294.4434" />
    <linearGradient
       xlink:href="#swatch703"
       id="linearGradient54"
       gradientUnits="userSpaceOnUse"
       gradientTransform="matrix(0.24947919,0,0,0.24947919,-466.87555,-1020.9106)"
       x1="2277.5183"
       y1="4294.4434"
       x2="2617.1062"
       y2="4294.4434" />
    <linearGradient
       xlink:href="#swatch703"
       id="linearGradient55"
       gradientUnits="userSpaceOnUse"
       gradientTransform="matrix(0.24947919,0,0,0.24947919,-466.87555,-1020.9106)"
       x1="2277.5183"
       y1="4294.4434"
       x2="2617.1062"
       y2="4294.4434" />
    <linearGradient
       xlink:href="#swatch703"
       id="linearGradient56"
       gradientUnits="userSpaceOnUse"
       gradientTransform="matrix(0.24947919,0,0,0.24947919,-466.87555,-1020.9106)"
       x1="2277.5183"
       y1="4294.4434"
       x2="2617.1062"
       y2="4294.4434" />
    <linearGradient
       xlink:href="#swatch703"
       id="linearGradient57"
       gradientUnits="userSpaceOnUse"
       gradientTransform="matrix(0.24947919,0,0,0.24947919,-466.87555,-1020.9106)"
       x1="2277.5183"
       y1="4294.4434"
       x2="2617.1062"
       y2="4294.4434" />
  </defs>
  <g
     id="layer1"
     transform="translate(-21.609125,-76.53486)">
    <g
       id="g61"
       transform="matrix(1.3835318,0,0,1.3835318,-12.979169,54.244054)">
      <path
         style="font-weight:800;font-size:21.1667px;line-height:1;font-family:Montserrat;-inkscape-font-specification:'Montserrat Ultra-Bold';text-align:end;letter-spacing:1.23825px;text-anchor:end;fill:url(#linearGradient49);stroke-width:10.3238;stroke-miterlimit:0"
         d="M 174.07404,47.207544 V 32.83128 h 4.06643 V 43.983153 H 185 v 3.224391 z"
         id="path48" />
      <path
         style="font-weight:800;font-size:21.1667px;line-height:1;font-family:Montserrat;-inkscape-font-specification:'Montserrat Ultra-Bold';text-align:end;letter-spacing:1.23825px;text-anchor:end;fill:url(#linearGradient50);stroke-width:10.3238;stroke-miterlimit:0"
         d="M 159.07136,47.207544 V 32.83128 h 11.2751 v 3.142241 h -7.24975 v 8.091783 h 7.51673 v 3.14224 z m 3.73783,-5.771042 v -3.039554 h 6.67469 v 3.039554 z"
         id="path47" />
      <path
         style="font-weight:800;font-size:21.1667px;line-height:1;font-family:Montserrat;-inkscape-font-specification:'Montserrat Ultra-Bold';text-align:end;letter-spacing:1.23825px;text-anchor:end;fill:url(#linearGradient51);stroke-width:10.3238;stroke-miterlimit:0"
         d="m 149.63439,47.495069 q -1.76623,0 -3.40923,-0.431288 -1.62247,-0.451825 -2.64934,-1.150101 l 1.33493,-2.998477 q 0.96527,0.616125 2.21806,1.026876 1.27332,0.390212 2.52611,0.390212 0.84205,0 1.35548,-0.143762 0.51344,-0.1643 0.73936,-0.410751 0.24645,-0.266988 0.24645,-0.616125 0,-0.4929 -0.45183,-0.780426 -0.45183,-0.287525 -1.17064,-0.472362 -0.71882,-0.184839 -1.60193,-0.369676 -0.86258,-0.184838 -1.74568,-0.472363 -0.86259,-0.287525 -1.5814,-0.739351 -0.71881,-0.472362 -1.17063,-1.211714 -0.45183,-0.759887 -0.45183,-1.909989 0,-1.293864 0.69828,-2.341277 0.71881,-1.047413 2.13589,-1.684077 1.4171,-0.636663 3.53246,-0.636663 1.41709,0 2.77256,0.328601 1.37602,0.308062 2.44397,0.924188 l -1.25279,3.019015 q -1.02687,-0.554513 -2.03321,-0.8215 -1.00634,-0.287526 -1.95107,-0.287526 -0.84203,0 -1.35547,0.184838 -0.51344,0.1643 -0.73935,0.451826 -0.22592,0.287525 -0.22592,0.6572 0,0.472363 0.43129,0.759888 0.45183,0.266988 1.17064,0.451826 0.73935,0.1643 1.60193,0.349138 0.88311,0.184837 1.74569,0.472363 0.88311,0.266988 1.60192,0.73935 0.71881,0.451825 1.15011,1.211714 0.45182,0.73935 0.45182,1.868914 0,1.252789 -0.71881,2.32074 -0.69828,1.047414 -2.11537,1.684076 -1.39655,0.636663 -3.53245,0.636663 z"
         id="path46" />
      <path
         style="font-weight:800;font-size:21.1667px;line-height:1;font-family:Montserrat;-inkscape-font-specification:'Montserrat Ultra-Bold';text-align:end;letter-spacing:1.23825px;text-anchor:end;fill:url(#linearGradient52);stroke-width:10.3238;stroke-miterlimit:0"
         d="M 126.82748,47.207544 V 32.83128 h 3.34761 l 7.92749,9.570484 h -1.5814 V 32.83128 h 3.98428 v 14.376264 h -3.34761 l -7.92749,-9.570484 h 1.5814 v 9.570484 z"
         id="path45" />
      <path
         style="font-weight:800;font-size:21.1667px;line-height:1;font-family:Montserrat;-inkscape-font-specification:'Montserrat Ultra-Bold';text-align:end;letter-spacing:1.23825px;text-anchor:end;fill:url(#linearGradient53);stroke-width:10.3238;stroke-miterlimit:0"
         d="M 118.66381,47.207544 V 32.83128 h 4.06642 v 14.376264 z"
         id="path44" />
      <path
         style="font-weight:800;font-size:21.1667px;line-height:1;font-family:Montserrat;-inkscape-font-specification:'Montserrat Ultra-Bold';text-align:end;letter-spacing:1.23825px;text-anchor:end;fill:url(#linearGradient54);stroke-width:10.3238;stroke-miterlimit:0"
         d="M 102.2646,47.207544 V 32.83128 h 6.42824 q 3.14225,0 4.82633,1.437627 1.7046,1.417088 1.7046,3.881592 0,1.622463 -0.78042,2.813639 -0.78043,1.170639 -2.21806,1.807302 -1.41708,0.616126 -3.38868,0.616126 h -4.31288 l 1.8073,-1.704614 v 5.524592 z m 8.89275,0 -3.57353,-5.237067 h 4.33341 l 3.59408,5.237067 z m -4.82632,-5.093304 -1.8073,-1.868915 h 4.06643 q 1.27332,0 1.88944,-0.554513 0.63667,-0.554513 0.63667,-1.540313 0,-1.006339 -0.63667,-1.560853 -0.61612,-0.554513 -1.88944,-0.554513 h -4.06643 l 1.8073,-1.868913 z"
         id="path43" />
      <path
         style="font-weight:800;font-size:21.1667px;line-height:1;font-family:Montserrat;-inkscape-font-specification:'Montserrat Ultra-Bold';text-align:end;letter-spacing:1.23825px;text-anchor:end;fill:url(#linearGradient55);stroke-width:10.3238;stroke-miterlimit:0"
         d="m 91.554299,47.495069 q -3.183316,0 -4.97008,-1.745688 -1.786764,-1.74569 -1.786764,-4.949543 V 32.83128 h 4.066429 v 7.845333 q 0,1.848377 0.718813,2.64934 0.73935,0.800963 2.012677,0.800963 1.273326,0 1.992139,-0.800963 0.718813,-0.800963 0.718813,-2.64934 V 32.83128 h 4.004817 v 7.968558 q 0,3.203853 -1.786765,4.949543 -1.786764,1.745688 -4.970079,1.745688 z"
         id="path42" />
      <path
         style="font-weight:800;font-size:21.1667px;line-height:1;font-family:Montserrat;-inkscape-font-specification:'Montserrat Ultra-Bold';text-align:end;letter-spacing:1.23825px;text-anchor:end;fill:url(#linearGradient56);stroke-width:10.3238;stroke-miterlimit:0"
         d="M 58.784216,47.207544 V 32.83128 h 4.066429 v 11.151873 h 6.859532 v 3.224391 z"
         id="path40" />
      <path
         style="font-weight:800;font-size:21.1667px;line-height:1;font-family:Montserrat;-inkscape-font-specification:'Montserrat Ultra-Bold';text-align:end;letter-spacing:1.23825px;text-anchor:end;fill:url(#linearGradient57);stroke-width:10.3238;stroke-miterlimit:0"
         d="m 48.073914,47.495069 q -3.183315,0 -4.970079,-1.745688 -1.786764,-1.74569 -1.786764,-4.949543 V 32.83128 H 45.3835 v 7.845333 q 0,1.848377 0.718812,2.64934 0.739351,0.800963 2.012678,0.800963 1.273326,0 1.992139,-0.800963 0.718813,-0.800963 0.718813,-2.64934 V 32.83128 h 4.004817 v 7.968558 q 0,3.203853 -1.786765,4.949543 -1.786764,1.745688 -4.97008,1.745688 z"
         id="path39" />
      <path
         style="font-weight:800;font-size:21.1667px;line-height:1;font-family:Montserrat;-inkscape-font-specification:'Montserrat Ultra-Bold';text-align:end;letter-spacing:1.23825px;text-anchor:end;fill:url(#linearGradient38);stroke-width:10.3238;stroke-miterlimit:0"
         d="m 28.635142,44.024229 -0.225913,-4.55933 6.181794,-6.633619 h 4.477178 l -6.161256,6.674695 -2.259127,2.361814 z m -3.635141,3.183315 V 32.83128 h 4.025354 v 14.376264 z m 9.652634,0 -4.682555,-5.935343 2.649341,-2.834178 6.756843,8.769521 z"
         id="path37" />
      <path
         style="font-weight:800;font-size:39.6875px;line-height:1;font-family:Montserrat;-inkscape-font-specification:'Montserrat Ultra-Bold';text-align:end;letter-spacing:-0.529167px;text-anchor:end;fill:url(#linearGradient39);stroke-width:10.2662;stroke-miterlimit:0"
         d="M 25,79.889063 V 53.084116 h 6.241724 L 42.34663,71.31148 H 39.053451 L 49.852015,53.084116 h 6.241723 l 0.07658,26.804947 h -6.969281 l -0.07658,-16.197847 h 1.187077 L 42.231756,77.24686 H 38.861992 L 30.552454,63.691216 h 1.455125 v 16.197847 z m 49.538111,0.536099 q -3.216593,0 -5.93538,-1.033906 -2.718788,-1.033904 -4.748305,-2.910251 -1.991225,-1.914639 -3.101716,-4.441963 -1.11049,-2.527323 -1.11049,-5.552453 0,-3.02513 1.11049,-5.552453 1.110491,-2.527324 3.101716,-4.40367 2.029517,-1.914639 4.748305,-2.948544 2.718787,-1.033905 5.93538,-1.033905 3.254887,0 5.935382,1.033905 2.718787,1.033905 4.710011,2.948544 1.991225,1.876346 3.101716,4.40367 1.148784,2.527323 1.148784,5.552453 0,3.02513 -1.148784,5.590746 -1.110491,2.527324 -3.101716,4.40367 -1.991224,1.876347 -4.710011,2.910251 -2.680495,1.033906 -5.935382,1.033906 z m 0,-6.280016 q 1.531711,0 2.833666,-0.536099 1.340248,-0.536099 2.297567,-1.531712 0.995612,-1.033905 1.531711,-2.450738 0.574392,-1.416833 0.574392,-3.140008 0,-1.761468 -0.574392,-3.140008 -0.536099,-1.416833 -1.531711,-2.412445 -0.957319,-1.033905 -2.297567,-1.570004 -1.301955,-0.536099 -2.833666,-0.536099 -1.531711,0 -2.871958,0.536099 -1.301955,0.536099 -2.297567,1.570004 -0.95732,0.995612 -1.531711,2.412445 -0.536099,1.37854 -0.536099,3.140008 0,1.723175 0.536099,3.140008 0.574391,1.416833 1.531711,2.450738 0.995612,0.995613 2.297567,1.531712 1.340247,0.536099 2.871958,0.536099 z m 14.768271,5.743917 11.832468,-26.804947 h 7.46709 l 11.87077,26.804947 h -7.88832 l -9.26685,-23.090548 h 2.98684 l -9.266856,23.090548 z m 6.471479,-5.207818 1.952933,-5.590747 h 13.096136 l 1.95293,5.590747 z M 122.1105,79.889063 V 53.084116 h 13.70881 q 5.28441,0 7.88832,1.952931 2.60391,1.914639 2.60391,5.054647 0,2.067811 -1.11049,3.637815 -1.0722,1.531711 -3.06343,2.450738 -1.95292,0.880734 -4.67172,0.880734 l 0.76586,-1.838054 q 2.83367,0 4.93977,0.880735 2.1061,0.842441 3.25489,2.48903 1.18707,1.608297 1.18707,3.944157 0,3.484642 -2.83366,5.437575 -2.79538,1.914639 -8.19466,1.914639 z m 7.50539,-5.475868 h 6.35659 q 1.95293,0 2.94855,-0.650977 1.0339,-0.68927 1.0339,-2.06781 0,-1.378541 -1.0339,-2.029518 -0.99562,-0.68927 -2.94855,-0.68927 h -6.8927 v -5.246111 h 5.74393 q 1.91463,0 2.87195,-0.650978 0.95732,-0.650976 0.95732,-1.952931 0,-1.301955 -0.95732,-1.914639 -0.95732,-0.650978 -2.87195,-0.650978 h -5.20782 z m 21.43115,5.475868 V 53.084116 h 7.58197 v 26.804947 z m 18.17633,0 V 59.096082 h -8.23294 V 53.084116 H 185 v 6.011966 h -8.19466 v 20.792981 z"
         id="path38" />
      <path
         style="font-weight:800;font-size:22.5214px;line-height:1;font-family:Montserrat;-inkscape-font-specification:'Montserrat Ultra-Bold';text-align:end;letter-spacing:0.343958px;text-anchor:end;fill:url(#linearGradient3);stroke-width:12.7808;stroke-miterlimit:0"
         d="M 74.033319,47.862671 V 29.586685 16.111524 h 4.305323 v 13.475161 18.275986 z"
         id="path20" />
      <g
         id="g30"
         transform="translate(2.507137,-51.85353)">
        <path
           style="opacity:1;fill:none;stroke:url(#swatch703);stroke-width:4.3;stroke-miterlimit:0;stroke-dasharray:none"
           id="path28"
           d="m 64.713265,83.232797 a 9.1318979,9.1318979 0 0 1 8.993164,-7.54616 9.1318979,9.1318979 0 0 1 8.993163,7.546161" />
        <path
           style="opacity:1;fill:none;stroke:url(#swatch703);stroke-width:4.3;stroke-miterlimit:0;stroke-dasharray:none"
           id="path29"
           d="m -1.4002188,105.63686 a 9.1318979,9.1318979 0 0 1 8.9931639,7.54616"
           transform="rotate(-45)" />
        <path
           style="opacity:1;fill:none;stroke:url(#swatch703);stroke-width:4.3;stroke-miterlimit:0;stroke-dasharray:none"
           id="path30"
           d="m -8.9463795,96.643685 a 9.1318979,9.1318979 0 0 1 7.5461605,8.993165"
           transform="rotate(-45)" />
      </g>
    </g>
  </g>
</svg>
