<?xml version="1.0" encoding="UTF-8" standalone="no"?>
<!-- Created with Inkscape (http://www.inkscape.org/) -->

<svg
   width="85.455711mm"
   height="96.574318mm"
   viewBox="0 0 85.455711 96.574318"
   version="1.1"
   id="svg1"
   xmlns:xlink="http://www.w3.org/1999/xlink"
   xmlns="http://www.w3.org/2000/svg"
   xmlns:svg="http://www.w3.org/2000/svg">
  <defs
     id="defs1">
    <linearGradient
       xlink:href="#swatch703"
       id="linearGradient713"
       x1="557.10742"
       y1="1952.877"
       x2="2624.6426"
       y2="1952.877"
       gradientUnits="userSpaceOnUse"
       gradientTransform="matrix(1.0505929,0,0,1.0505929,-123.82412,-96.527168)" />
    <linearGradient
       id="swatch703"
       gradientTransform="matrix(1.3083154e-5,0,0,1.3083154e-5,1819.8255,2862.2978)">
      <stop
         style="stop-color:#016daf;stop-opacity:1;"
         offset="0"
         id="stop703" />
    </linearGradient>
    <linearGradient
       xlink:href="#swatch704"
       id="linearGradient711"
       x1="1590.875"
       y1="1468.9716"
       x2="2164"
       y2="1468.9716"
       gradientUnits="userSpaceOnUse"
       gradientTransform="matrix(1.0505929,0,0,1.0505929,-123.82412,-96.527168)" />
    <linearGradient
       id="swatch704"
       gradientTransform="matrix(0.00935781,0,0,0.00935781,2305.4273,3354.4756)">
      <stop
         style="stop-color:#fc411f;stop-opacity:1;"
         offset="0"
         id="stop704" />
    </linearGradient>
    <linearGradient
       xlink:href="#swatch704"
       id="linearGradient712"
       x1="557.10742"
       y1="1468.9268"
       x2="1590.875"
       y2="1468.9268"
       gradientUnits="userSpaceOnUse"
       gradientTransform="matrix(1.0505929,0,0,1.0505929,-123.82412,-96.527168)" />
    <linearGradient
       xlink:href="#swatch703"
       id="linearGradient707"
       x1="568.76758"
       y1="2726.6309"
       x2="1315.6953"
       y2="2726.6309"
       gradientUnits="userSpaceOnUse"
       gradientTransform="matrix(1.0505929,0,0,1.0505929,-123.82412,-96.527168)" />
    <clipPath
       clipPathUnits="userSpaceOnUse"
       id="clipPath131">
      <rect
         style="display:inline;opacity:0.1;fill:#0000ff;fill-rule:evenodd;stroke-width:0.986013"
         id="rect132"
         width="1361.0105"
         height="742.36932"
         x="1353.9403"
         y="2690.2051" />
    </clipPath>
    <linearGradient
       xlink:href="#swatch703"
       id="linearGradient708"
       x1="386.66913"
       y1="2859.8699"
       x2="3924.5439"
       y2="2859.8699"
       gradientUnits="userSpaceOnUse" />
    <linearGradient
       xlink:href="#swatch704"
       id="linearGradient709"
       x1="386.66913"
       y1="3088.0991"
       x2="3924.5439"
       y2="3088.0991"
       gradientUnits="userSpaceOnUse" />
    <linearGradient
       xlink:href="#swatch704"
       id="linearGradient710"
       x1="386.66913"
       y1="3316.3281"
       x2="3924.5439"
       y2="3316.3281"
       gradientUnits="userSpaceOnUse" />
    <linearGradient
       xlink:href="#swatch704"
       id="linearGradient704"
       x1="1930.1604"
       y1="2341.9985"
       x2="2520.5208"
       y2="2341.9985"
       gradientUnits="userSpaceOnUse"
       gradientTransform="matrix(1.0505929,0,0,1.0505929,-123.82412,-96.527168)" />
  </defs>
  <g
     id="layer1"
     transform="translate(-74.303183,-63.20027)">
    <g
       id="g749"
       transform="matrix(0.03724974,0,0,0.03724974,58.123586,27.018604)"
       style="display:inline">
      <path
         id="rect24"
         style="display:inline;fill:url(#linearGradient713);fill-rule:evenodd;stroke-width:0.937074"
         d="m 1546.8627,971.32666 c -265.3078,0.41719 -521.4732,96.97864 -721.04112,271.79574 -199.568,174.8171 -329.01221,416.0409 -364.35259,678.9846 148.86922,-112.2878 310.6947,-112.2878 485.47653,0 191.37818,-109.6908 377.77678,-117.2965 559.21088,-23.1335 v 1037.1937 c 0,1.5567 10.5287,2.8091 23.6075,2.8091 h 31.4194 c 13.0788,0 23.6075,-1.2524 23.6075,-2.8091 V 1902.8414 c 200.9316,-98.327 389.2282,-91.966 564.8681,19.2656 169.4595,-114.0095 330.7754,-114.0095 483.9479,0 -35.3661,-263.0506 -164.9113,-504.3546 -364.6194,-679.1775 -199.7083,-174.8227 -456.0323,-271.30521 -721.4495,-271.55767 z" />
      <path
         id="path5-4"
         style="fill:url(#linearGradient711);fill-opacity:1;stroke:none;stroke-width:3.97074"
         d="m 1547.5379,971.4209 v 950.686 c 214.9582,-118.0813 415.6651,-118.0813 602.121,0 -10.4767,-403.5504 -241.7663,-768.7323 -602.121,-950.686 z" />
      <path
         d="m 946.94552,1922.1069 c 10.17667,-403.2193 240.82798,-768.3236 600.59238,-950.6942 v -0.041 l -0.6752,-0.0452 c -265.3078,0.41719 -521.4733,96.9784 -721.04123,271.7955 -199.568,174.8171 -329.0121,416.0411 -364.35248,678.9849 148.86922,-112.2878 310.69474,-112.2878 485.47653,0 z"
         style="fill:url(#linearGradient712);fill-opacity:1;stroke:none;stroke-width:3.97074"
         id="path23" />
      <path
         id="rect26"
         style="fill:url(#linearGradient707);fill-opacity:1;fill-rule:evenodd;stroke:none;stroke-width:1.05059"
         d="m 767.65321,1972.16 c -2.1998,0 -3.97256,1.7708 -3.97256,3.9705 v 97.66 h -32.30778 a 31.352265,37.078194 0 0 0 -28.64917,-22.0399 31.352265,37.078194 0 0 0 -31.35159,37.0786 31.352265,37.078194 0 0 0 31.35159,37.0786 31.352265,37.078194 0 0 0 28.63275,-22.0379 h 32.3242 v 83.1959 h -32.30778 a 31.352265,37.078194 0 0 0 -28.64917,-22.0419 31.352265,37.078194 0 0 0 -31.35159,37.0785 31.352265,37.078194 0 0 0 31.35159,37.0785 31.352265,37.078194 0 0 0 28.63275,-22.0378 h 32.3242 v 79.2725 c 0,2.1999 1.77276,3.9705 3.97256,3.9705 h 30.72163 l -4.70715,292.7995 c -176.49116,5.1404 -245.20263,152.0117 -245.20263,226.9671 0,76.2955 52.64726,126.83 48.41345,176.8464 -4.2338,50.0164 -123.15945,152.3868 -123.15945,264.2692 0,111.8823 60.34633,302.6754 392.35746,302.6754 332.01098,0 392.35948,-190.7931 392.35948,-302.6754 0,-111.8824 -118.9256,-214.2528 -123.1594,-264.2692 -4.2338,-50.0164 48.4155,-100.5509 48.4155,-176.8464 0,-75.5161 -69.7357,-224.0408 -249.1752,-227.0697 l -4.70718,-292.6969 h 30.72375 c 2.19973,0 3.97051,-1.7706 3.97051,-3.9705 v -79.2725 h 32.30982 a 31.352265,37.078194 0 0 0 28.6491,22.0399 31.352265,37.078194 0 0 0 31.3516,-37.0786 31.352265,37.078194 0 0 0 -31.3516,-37.0785 31.352265,37.078194 0 0 0 -28.63271,22.0378 h -32.32621 v -83.1958 h 32.30982 a 31.352265,37.078194 0 0 0 28.6491,22.0399 31.352265,37.078194 0 0 0 31.3516,-37.0786 31.352265,37.078194 0 0 0 -31.3516,-37.0786 31.352265,37.078194 0 0 0 -28.63271,22.0379 h -32.32621 v -97.658 c 0,-2.1997 -1.77078,-3.9705 -3.97051,-3.9705 z m 93.20113,882.6561 c 94.09061,0 171.00436,76.9159 171.00456,171.0065 0,94.0907 -76.91385,171.0045 -171.00456,171.0045 -94.0907,0 -171.00451,-76.9138 -171.00451,-171.0045 6e-5,-94.0906 76.91386,-171.0065 171.00451,-171.0065 z m 0,59.5616 c -61.90142,0 -111.44488,49.5435 -111.44492,111.4449 0,61.9015 49.54346,111.4429 111.44492,111.4429 61.90144,-10e-5 111.44283,-49.5414 111.44283,-111.4429 0,-61.9014 -49.54142,-111.4449 -111.44283,-111.4449 z" />
      <g
         id="g129"
         clip-path="url(#clipPath131)"
         style="display:inline"
         transform="matrix(1.0505929,0,0,1.0505929,-123.82412,-96.527168)">
        <g
           id="g128"
           style="display:inline">
          <path
             id="path107"
             style="fill:url(#linearGradient708);fill-opacity:1;fill-rule:evenodd;stroke-width:1.18602"
             d="m 399.61679,2953.9796 c 69.24355,0 94.10488,-17.7967 133.41156,-42.4443 4.91338,-3.0809 10.05197,-6.2679 15.4553,-9.4881 5.40333,-3.2201 11.0715,-6.4733 17.04216,-9.6827 22.97639,-12.3506 51.81358,-23.1061 85.96593,-29.9219 0.1115,-0.029 0.1847,-0.09 0.29654,-0.1203 0.0991,-0.026 0.27332,-0.015 0.37283,-0.042 5.56602,-1.0968 9.9682,-3.0017 15.89792,-3.8199 4.74,-0.654 9.59867,-1.213 14.58206,-1.6677 4.98327,-0.4545 10.0917,-0.8057 15.32804,-1.0424 5.23546,-0.2366 10.59872,-0.359 16.09683,-0.3591 v 0 c 87.98286,0 141.73345,31.4961 181.04013,56.1438 9.82665,6.162 18.75067,11.8936 27.69086,17.0282 13.02426,7.4805 26.25854,13.5444 42.1941,17.9526 0.9887,0.2017 1.80988,0.5133 2.80992,0.7065 16.32612,4.2233 35.40263,6.7571 60.71893,6.7571 69.2435,0 94.1047,-17.7968 133.4114,-42.4444 4.9134,-3.0809 10.052,-6.268 15.4554,-9.4882 21.6134,-12.8803 47.4576,-26.2756 80.0034,-35.3906 12.2046,-3.4182 25.3515,-6.2339 39.5719,-8.1958 4.7399,-0.654 9.5987,-1.213 14.582,-1.6677 4.9833,-0.4545 10.0917,-0.8057 15.328,-1.0424 5.2355,-0.2366 10.599,-0.359 16.097,-0.3591 v 0 c 87.983,0 141.7335,31.4961 181.04,56.1438 9.8266,6.162 18.7507,11.8936 27.691,17.0282 4.4701,2.5675 8.944,4.9857 13.5373,7.2321 22.9659,11.2319 48.9083,18.1841 92.1855,18.1841 h 0.081 c 12.1634,0 22.2139,-1.8293 33.1206,-2.9349 44.0617,-5.1733 68.4023,-19.562 100.2098,-39.5073 4.9134,-3.0808 10.0521,-6.2679 15.4554,-9.4881 16.2101,-9.6603 34.7993,-19.6113 56.8111,-27.8274 7.3373,-2.7389 15.0558,-5.2846 23.1923,-7.5633 4.0681,-1.1394 8.2403,-2.2121 12.5227,-3.2083 6.8555,-1.5949 14.7779,-2.3854 22.2148,-3.5511 2.1434,-0.4237 4.057,-0.9737 6.3124,-1.3388 2.2526,-0.365 4.9176,-0.532 7.2922,-0.8364 2.044,-0.2264 3.7248,-0.7385 5.812,-0.929 1.1893,-0.1078 2.5468,-0.069 3.7504,-0.1668 1.2848,-0.1114 2.3524,-0.3257 3.6738,-0.4215 7.3834,-0.5348 15.3452,-0.8131 24.0008,-0.8131 v 0 c 87.9829,0 141.7358,31.496 181.0424,56.1438 9.8266,6.162 18.7482,11.8936 27.6885,17.0283 8.9403,5.1348 17.8986,9.6702 27.7906,13.4355 4.9461,1.8826 10.1257,3.5738 15.6545,5.0499 5.5287,1.4761 11.4053,2.7374 17.7465,3.7642 5.8152,0.9418 12.1439,1.6296 18.828,2.159 1.3397,0.098 2.6874,0.1896 4.0446,0.2733 6.7657,0.4373 13.8479,0.7343 21.6588,0.7343 h 0.081 c 12.1632,0 22.2139,-1.8292 33.1207,-2.935 44.0618,-5.1733 68.4022,-19.5619 100.2097,-39.5071 14.7401,-9.2429 31.5121,-19.4496 51.3581,-28.5966 13.2305,-6.098 27.8277,-11.7248 44.1006,-16.2823 6.8627,-1.9221 15.3563,-2.6639 22.838,-4.1604 0.1704,-0.046 0.292,-0.1281 0.4632,-0.1737 0.3388,-0.09 0.9304,-0.052 1.2718,-0.1415 9.7541,-1.8914 18.6926,-4.3945 29.581,-5.3879 9.9654,-0.9093 20.4266,-1.4013 31.4227,-1.4015 v 0 0 c 87.9828,0 141.7359,31.4961 181.0424,56.1439 19.6532,12.3238 35.6947,22.9331 55.4791,30.4638 4.946,1.8826 10.1259,3.5736 15.6546,5.0498 3.5723,0.9537 7.5722,1.6631 11.4664,2.4323 15.6874,2.4556 31.9882,4.4647 50.5358,4.4799 0.1067,10e-5 0.1685,0.019 0.2756,0.019 69.2436,0 94.1048,-17.7966 133.4116,-42.4442 14.74,-9.243 31.512,-19.4494 51.3581,-28.5965 13.2305,-6.098 27.8277,-11.7249 44.1005,-16.2824 4.0683,-1.1394 8.2403,-2.2122 12.5227,-3.2083 4.2827,-0.9964 8.6743,-1.9152 13.1807,-2.7497 4.7186,-0.8737 9.9197,-1.3698 14.8948,-2.0454 0.1607,-0.026 0.2904,-0.068 0.4516,-0.095 0.1452,-0.025 0.364,-0.014 0.5097,-0.037 4.2211,-0.5597 8.1825,-1.3256 12.5945,-1.7282 4.9834,-0.4544 10.0917,-0.8055 15.3281,-1.0422 5.2355,-0.2367 10.5989,-0.3591 16.0968,-0.3593 v 0 c 87.9831,0 141.7358,31.4961 181.0426,56.1439 9.8266,6.1619 18.7504,11.8936 27.6907,17.0282 9.8715,5.6697 20.8302,9.6286 31.9787,13.6069 12.5362,3.1328 22.9398,7.6446 37.5219,9.2334 10.9047,1.3801 22.14,2.5758 36.2201,2.5758 69.2434,0 94.1048,-17.7967 133.4113,-42.4443 30.1511,-18.9066 69.7935,-41.0617 125.8738,-50.7209 3.4915,-0.7797 6.8347,-1.641 10.6349,-2.2563 6.3412,-1.0268 13.1449,-1.8187 20.5284,-2.3535 1.8328,-0.1329 4.052,-0.1013 5.9578,-0.2015 0.7065,-0.037 1.2347,-0.2203 1.9459,-0.2524 5.234,-0.2366 10.596,-0.3591 16.0924,-0.3593 v 0 0 c 87.983,0 87.9477,-89.641 -0.035,-89.641 -5.499,0 -10.8633,0.1224 -16.0995,0.3591 -78.5447,3.5506 -128.0909,32.6774 -164.9407,55.7848 -39.3067,24.6478 -64.168,42.4466 -133.4114,42.4466 -17.3109,0 -31.8493,-1.1127 -44.5316,-3.1666 -6.3412,-1.0268 -12.2176,-2.288 -17.7463,-3.7641 -16.5862,-4.4285 -30.0324,-10.7832 -43.4428,-18.4853 -8.9402,-5.1347 -17.8641,-10.8687 -27.6908,-17.0306 -39.3066,-24.648 -93.0595,-56.1439 -181.0424,-56.1439 -5.4989,0 -10.863,0.1224 -16.0993,0.3591 -5.2363,0.2367 -10.3446,0.5878 -15.3281,1.0422 -9.9667,0.9095 -19.4375,2.2367 -28.4505,3.9057 -4.5064,0.8345 -8.898,1.7533 -13.1807,2.7498 -4.2825,0.9961 -8.4544,2.0687 -12.5227,3.2081 -16.2729,4.5575 -30.8702,10.1844 -44.1008,16.2824 -19.8458,9.1471 -36.6179,19.3537 -51.358,28.5966 -39.3065,24.6478 -64.1679,42.4466 -133.4115,42.4466 -17.3108,0 -31.849,-1.1127 -44.5314,-3.1666 -6.3411,-1.0268 -12.2176,-2.288 -17.7464,-3.7641 -5.5286,-1.4762 -10.7085,-3.1672 -15.6547,-5.0499 -19.7842,-7.5307 -35.8257,-18.1419 -55.4789,-30.466 -39.3066,-24.648 -93.0596,-56.1439 -181.0424,-56.1439 -10.9978,0 -21.4605,0.4921 -31.4271,1.4013 -19.9337,1.8189 -37.8815,5.306 -54.1543,9.8636 -16.273,4.5575 -30.8701,10.1844 -44.1006,16.2824 -19.8459,9.1471 -36.618,19.3537 -51.358,28.5966 -34.3933,21.567 -57.7268,37.8897 -109.4107,41.6336 -7.3834,0.5349 -15.3453,0.813 -24.0008,0.813 -8.6554,0 -16.6174,-0.2781 -24.0008,-0.813 -7.3835,-0.5348 -14.1894,-1.3266 -20.5307,-2.3536 -6.3411,-1.0268 -12.2178,-2.288 -17.7464,-3.7641 -5.5288,-1.4762 -10.7084,-3.1672 -15.6545,-5.0499 -9.892,-3.7655 -18.8503,-8.3007 -27.7906,-13.4354 -8.9402,-5.1347 -17.8619,-10.8687 -27.6885,-17.0306 -39.3067,-24.648 -93.0595,-56.1439 -181.0424,-56.1439 -10.9979,0 -21.4605,0.4921 -31.4274,1.4013 -14.95,1.3643 -28.7837,3.6665 -41.6312,6.6555 -4.2824,0.9961 -8.4545,2.0687 -12.5227,3.2081 -8.1365,2.2787 -15.8552,4.8246 -23.1923,7.5633 -22.0119,8.2164 -40.601,18.1671 -56.8111,27.8275 -5.4033,3.2202 -10.5421,6.4072 -15.4555,9.4882 -34.3932,21.567 -57.7269,37.8897 -109.4107,41.6336 -7.3834,0.5349 -15.3452,0.813 -24.0007,0.813 -43.2772,0 -69.2197,-6.952 -92.1855,-18.1841 -4.5933,-2.2463 -9.0672,-4.6645 -13.5374,-7.2319 -8.9402,-5.1347 -17.8643,-10.8687 -27.6909,-17.0306 -39.3066,-24.648 -93.057,-56.1439 -181.0401,-56.1439 -5.4989,0 -10.863,0.1224 -16.0994,0.3591 -5.2363,0.2367 -10.3446,0.5878 -15.328,1.0422 -4.9833,0.4549 -9.8419,1.0141 -14.582,1.6681 -14.2202,1.9617 -27.3673,4.7772 -39.5718,8.1955 -32.5458,9.1151 -58.3901,22.5104 -80.0034,35.3908 -5.4035,3.2202 -10.5421,6.4072 -15.4554,9.4882 -39.3066,24.6478 -64.168,42.4466 -133.4115,42.4466 -25.9663,0 -45.69169,-2.5022 -62.27781,-6.9307 -16.58623,-4.4285 -30.03472,-10.7832 -43.44512,-18.4853 -8.94009,-5.1347 -17.86421,-10.8687 -27.69086,-17.0306 -39.30668,-24.648 -93.05727,-56.1439 -181.04003,-56.1439 -5.49898,0 -10.86289,0.1224 -16.09935,0.3591 -5.23623,0.2367 -10.34455,0.5878 -15.32804,1.0422 -4.98328,0.4549 -9.84195,1.0141 -14.58206,1.6681 -42.66083,5.8855 -75.66497,19.461 -102.53322,33.9035 -5.97066,3.2094 -11.63873,6.4626 -17.04205,9.6828 -5.40344,3.2202 -10.54192,6.4072 -15.4553,9.4882 -39.30657,24.6478 -64.16812,42.4466 -133.41156,42.4466 -17.31085,0 -17.08498,89.6342 0.0575,89.6342 z" />
          <path
             id="use125"
             style="fill:url(#linearGradient709);fill-opacity:1;fill-rule:evenodd;stroke-width:1.18602"
             d="m 399.61679,3182.2088 c 69.24355,0 94.10488,-17.7967 133.41156,-42.4443 4.91338,-3.0809 10.05197,-6.2679 15.4553,-9.4881 5.40333,-3.2201 11.0715,-6.4733 17.04216,-9.6827 22.97639,-12.3506 51.81358,-23.1061 85.96593,-29.9219 0.1115,-0.029 0.1847,-0.09 0.29654,-0.1203 0.0991,-0.026 0.27332,-0.015 0.37283,-0.042 5.56602,-1.0968 9.9682,-3.0017 15.89792,-3.8199 4.74,-0.654 9.59867,-1.213 14.58206,-1.6677 4.98327,-0.4545 10.0917,-0.8057 15.32804,-1.0424 5.23546,-0.2366 10.59872,-0.359 16.09683,-0.3591 v 0 c 87.98286,0 141.73345,31.4961 181.04013,56.1438 9.82665,6.162 18.75067,11.8936 27.69086,17.0282 13.02426,7.4805 26.25854,13.5444 42.1941,17.9526 0.9887,0.2017 1.80988,0.5133 2.80992,0.7065 16.32612,4.2233 35.40263,6.7571 60.71893,6.7571 69.2435,0 94.1047,-17.7968 133.4114,-42.4444 4.9134,-3.0809 10.052,-6.268 15.4554,-9.4882 21.6134,-12.8803 47.4576,-26.2756 80.0034,-35.3906 12.2046,-3.4182 25.3515,-6.2339 39.5719,-8.1958 4.7399,-0.654 9.5987,-1.213 14.582,-1.6677 4.9833,-0.4545 10.0917,-0.8057 15.328,-1.0424 5.2355,-0.2366 10.599,-0.359 16.097,-0.3591 v 0 c 87.983,0 141.7335,31.4961 181.04,56.1438 9.8266,6.162 18.7507,11.8936 27.691,17.0282 4.4701,2.5675 8.944,4.9857 13.5373,7.2321 22.9659,11.2319 48.9083,18.1841 92.1855,18.1841 h 0.081 c 12.1634,0 22.2139,-1.8293 33.1206,-2.9349 44.0617,-5.1733 68.4023,-19.562 100.2098,-39.5073 4.9134,-3.0808 10.0521,-6.2679 15.4554,-9.4881 16.2101,-9.6603 34.7993,-19.6113 56.8111,-27.8274 7.3373,-2.7389 15.0558,-5.2846 23.1923,-7.5633 4.0681,-1.1394 8.2403,-2.2121 12.5227,-3.2083 6.8555,-1.5949 14.7779,-2.3854 22.2148,-3.5511 2.1434,-0.4237 4.057,-0.9737 6.3124,-1.3388 2.2526,-0.365 4.9176,-0.532 7.2922,-0.8364 2.044,-0.2264 3.7248,-0.7385 5.812,-0.929 1.1893,-0.1078 2.5468,-0.069 3.7504,-0.1668 1.2848,-0.1114 2.3524,-0.3257 3.6738,-0.4215 7.3834,-0.5348 15.3452,-0.8131 24.0008,-0.8131 v 0 c 87.9829,0 141.7358,31.496 181.0424,56.1438 9.8266,6.162 18.7482,11.8936 27.6885,17.0283 8.9403,5.1348 17.8986,9.6702 27.7906,13.4355 4.9461,1.8826 10.1257,3.5738 15.6545,5.0499 5.5287,1.4761 11.4053,2.7374 17.7465,3.7642 5.8152,0.9418 12.1439,1.6296 18.828,2.159 1.3397,0.098 2.6874,0.1896 4.0446,0.2733 6.7657,0.4373 13.8479,0.7343 21.6588,0.7343 h 0.081 c 12.1632,0 22.2139,-1.8292 33.1207,-2.935 44.0618,-5.1733 68.4022,-19.5619 100.2097,-39.5071 14.7401,-9.2429 31.5121,-19.4496 51.3581,-28.5966 13.2305,-6.098 27.8277,-11.7248 44.1006,-16.2823 6.8627,-1.9221 15.3563,-2.6639 22.838,-4.1604 0.1704,-0.046 0.292,-0.1281 0.4632,-0.1737 0.3388,-0.09 0.9304,-0.052 1.2718,-0.1415 9.7541,-1.8914 18.6926,-4.3945 29.581,-5.3879 9.9654,-0.9093 20.4266,-1.4013 31.4227,-1.4015 v 0 0 c 87.9828,0 141.7359,31.4961 181.0424,56.1439 19.6532,12.3238 35.6947,22.9331 55.4791,30.4638 4.946,1.8826 10.1259,3.5736 15.6546,5.0498 3.5723,0.9537 7.5722,1.6631 11.4664,2.4323 15.6874,2.4556 31.9882,4.4647 50.5358,4.4799 0.1067,1e-4 0.1685,0.019 0.2756,0.019 69.2436,0 94.1048,-17.7966 133.4116,-42.4442 14.74,-9.243 31.512,-19.4494 51.3581,-28.5965 13.2305,-6.098 27.8277,-11.7249 44.1005,-16.2824 4.0683,-1.1394 8.2403,-2.2122 12.5227,-3.2083 4.2827,-0.9964 8.6743,-1.9152 13.1807,-2.7497 4.7186,-0.8737 9.9197,-1.3698 14.8948,-2.0454 0.1607,-0.026 0.2904,-0.068 0.4516,-0.095 0.1452,-0.025 0.364,-0.014 0.5097,-0.037 4.2211,-0.5597 8.1825,-1.3256 12.5945,-1.7282 4.9834,-0.4544 10.0917,-0.8055 15.3281,-1.0422 5.2355,-0.2367 10.5989,-0.3591 16.0968,-0.3593 v 0 c 87.9831,0 141.7358,31.4961 181.0426,56.1439 9.8266,6.1619 18.7504,11.8936 27.6907,17.0282 9.8715,5.6697 20.8302,9.6286 31.9787,13.6069 12.5362,3.1328 22.9398,7.6446 37.5219,9.2334 10.9047,1.3801 22.14,2.5758 36.2201,2.5758 69.2434,0 94.1048,-17.7967 133.4113,-42.4443 30.1511,-18.9066 69.7935,-41.0617 125.8738,-50.7209 3.4915,-0.7797 6.8347,-1.641 10.6349,-2.2563 6.3412,-1.0268 13.1449,-1.8187 20.5284,-2.3535 1.8328,-0.1329 4.052,-0.1013 5.9578,-0.2015 0.7065,-0.037 1.2347,-0.2203 1.9459,-0.2524 5.234,-0.2366 10.596,-0.3591 16.0924,-0.3593 v 0 0 c 87.983,0 87.9477,-89.641 -0.035,-89.641 -5.499,0 -10.8633,0.1224 -16.0995,0.3591 -78.5447,3.5506 -128.0909,32.6774 -164.9407,55.7848 -39.3067,24.6478 -64.168,42.4466 -133.4114,42.4466 -17.3109,0 -31.8493,-1.1127 -44.5316,-3.1666 -6.3412,-1.0268 -12.2176,-2.288 -17.7463,-3.7641 -16.5862,-4.4285 -30.0324,-10.7832 -43.4428,-18.4853 -8.9402,-5.1347 -17.8641,-10.8687 -27.6908,-17.0306 -39.3066,-24.648 -93.0595,-56.1439 -181.0424,-56.1439 -5.4989,0 -10.863,0.1224 -16.0993,0.3591 -5.2363,0.2367 -10.3446,0.5878 -15.3281,1.0422 -9.9667,0.9095 -19.4375,2.2367 -28.4505,3.9057 -4.5064,0.8345 -8.898,1.7533 -13.1807,2.7498 -4.2825,0.9961 -8.4544,2.0687 -12.5227,3.2081 -16.2729,4.5575 -30.8702,10.1844 -44.1008,16.2824 -19.8458,9.1471 -36.6179,19.3537 -51.358,28.5966 -39.3065,24.6478 -64.1679,42.4466 -133.4115,42.4466 -17.3108,0 -31.849,-1.1127 -44.5314,-3.1666 -6.3411,-1.0268 -12.2176,-2.288 -17.7464,-3.7641 -5.5286,-1.4762 -10.7085,-3.1672 -15.6547,-5.0499 -19.7842,-7.5307 -35.8257,-18.1419 -55.4789,-30.466 -39.3066,-24.648 -93.0596,-56.1439 -181.0424,-56.1439 -10.9978,0 -21.4605,0.4921 -31.4271,1.4013 -19.9337,1.8189 -37.8815,5.306 -54.1543,9.8636 -16.273,4.5575 -30.8701,10.1844 -44.1006,16.2824 -19.8459,9.1471 -36.618,19.3537 -51.358,28.5966 -34.3933,21.567 -57.7268,37.8897 -109.4107,41.6336 -7.3834,0.5349 -15.3453,0.813 -24.0008,0.813 -8.6554,0 -16.6174,-0.2781 -24.0008,-0.813 -7.3835,-0.5348 -14.1894,-1.3266 -20.5307,-2.3536 -6.3411,-1.0268 -12.2178,-2.288 -17.7464,-3.7641 -5.5288,-1.4762 -10.7084,-3.1672 -15.6545,-5.0499 -9.892,-3.7655 -18.8503,-8.3007 -27.7906,-13.4354 -8.9402,-5.1347 -17.8619,-10.8687 -27.6885,-17.0306 -39.3067,-24.648 -93.0595,-56.1439 -181.0424,-56.1439 -10.9979,0 -21.4605,0.4921 -31.4274,1.4013 -14.95,1.3643 -28.7837,3.6665 -41.6312,6.6555 -4.2824,0.9961 -8.4545,2.0687 -12.5227,3.2081 -8.1365,2.2787 -15.8552,4.8246 -23.1923,7.5633 -22.0119,8.2164 -40.601,18.1671 -56.8111,27.8275 -5.4033,3.2202 -10.5421,6.4072 -15.4555,9.4882 -34.3932,21.567 -57.7269,37.8897 -109.4107,41.6336 -7.3834,0.5349 -15.3452,0.813 -24.0007,0.813 -43.2772,0 -69.2197,-6.952 -92.1855,-18.1841 -4.5933,-2.2463 -9.0672,-4.6645 -13.5374,-7.2319 -8.9402,-5.1347 -17.8643,-10.8687 -27.6909,-17.0306 -39.3066,-24.648 -93.057,-56.1439 -181.0401,-56.1439 -5.4989,0 -10.863,0.1224 -16.0994,0.3591 -5.2363,0.2367 -10.3446,0.5878 -15.328,1.0422 -4.9833,0.4549 -9.8419,1.0141 -14.582,1.6681 -14.2202,1.9617 -27.3673,4.7772 -39.5718,8.1955 -32.5458,9.1151 -58.3901,22.5104 -80.0034,35.3908 -5.4035,3.2202 -10.5421,6.4072 -15.4554,9.4882 -39.3066,24.6478 -64.168,42.4466 -133.4115,42.4466 -25.9663,0 -45.69169,-2.5022 -62.27781,-6.9307 -16.58623,-4.4285 -30.03472,-10.7832 -43.44512,-18.4853 -8.94009,-5.1347 -17.86421,-10.8687 -27.69086,-17.0306 -39.30668,-24.648 -93.05727,-56.1439 -181.04003,-56.1439 -5.49898,0 -10.86289,0.1224 -16.09935,0.3591 -5.23623,0.2367 -10.34455,0.5878 -15.32804,1.0422 -4.98328,0.4549 -9.84195,1.0141 -14.58206,1.6681 -42.66083,5.8855 -75.66497,19.461 -102.53322,33.9035 -5.97066,3.2094 -11.63873,6.4626 -17.04205,9.6828 -5.40344,3.2202 -10.54192,6.4072 -15.4553,9.4882 -39.30657,24.6478 -64.16812,42.4466 -133.41156,42.4466 -17.31085,0 -17.08498,89.6342 0.0575,89.6342 z" />
          <path
             id="use128"
             style="fill:url(#linearGradient710);fill-opacity:1;fill-rule:evenodd;stroke-width:1.18602"
             d="m 399.61679,3410.438 c 69.24355,0 94.10488,-17.7967 133.41156,-42.4443 4.91338,-3.0809 10.05197,-6.2679 15.4553,-9.4881 5.40333,-3.2201 11.0715,-6.4733 17.04216,-9.6827 22.97639,-12.3506 51.81358,-23.1061 85.96593,-29.9219 0.1115,-0.029 0.1847,-0.09 0.29654,-0.1203 0.0991,-0.026 0.27332,-0.015 0.37283,-0.042 5.56602,-1.0968 9.9682,-3.0017 15.89792,-3.8199 4.74,-0.654 9.59867,-1.213 14.58206,-1.6677 4.98327,-0.4545 10.0917,-0.8057 15.32804,-1.0424 5.23546,-0.2366 10.59872,-0.359 16.09683,-0.3591 v 0 c 87.98286,0 141.73345,31.4961 181.04013,56.1438 9.82665,6.162 18.75067,11.8936 27.69086,17.0282 13.02426,7.4805 26.25854,13.5444 42.1941,17.9526 0.9887,0.2017 1.80988,0.5133 2.80992,0.7065 16.32612,4.2233 35.40263,6.7571 60.71893,6.7571 69.2435,0 94.1047,-17.7968 133.4114,-42.4444 4.9134,-3.0809 10.052,-6.268 15.4554,-9.4882 21.6134,-12.8803 47.4576,-26.2756 80.0034,-35.3906 12.2046,-3.4182 25.3515,-6.2339 39.5719,-8.1958 4.7399,-0.654 9.5987,-1.213 14.582,-1.6677 4.9833,-0.4545 10.0917,-0.8057 15.328,-1.0424 5.2355,-0.2366 10.599,-0.359 16.097,-0.3591 v 0 c 87.983,0 141.7335,31.4961 181.04,56.1438 9.8266,6.162 18.7507,11.8936 27.691,17.0282 4.4701,2.5675 8.944,4.9857 13.5373,7.2321 22.9659,11.2319 48.9083,18.1841 92.1855,18.1841 h 0.081 c 12.1634,0 22.2139,-1.8293 33.1206,-2.9349 44.0617,-5.1733 68.4023,-19.562 100.2098,-39.5073 4.9134,-3.0808 10.0521,-6.2679 15.4554,-9.4881 16.2101,-9.6603 34.7993,-19.6113 56.8111,-27.8274 7.3373,-2.7389 15.0558,-5.2846 23.1923,-7.5633 4.0681,-1.1394 8.2403,-2.2121 12.5227,-3.2083 6.8555,-1.5949 14.7779,-2.3854 22.2148,-3.5511 2.1434,-0.4237 4.057,-0.9737 6.3124,-1.3388 2.2526,-0.365 4.9176,-0.532 7.2922,-0.8364 2.044,-0.2264 3.7248,-0.7385 5.812,-0.929 1.1893,-0.1078 2.5468,-0.069 3.7504,-0.1668 1.2848,-0.1114 2.3524,-0.3257 3.6738,-0.4215 7.3834,-0.5348 15.3452,-0.8131 24.0008,-0.8131 v 0 c 87.9829,0 141.7358,31.496 181.0424,56.1438 9.8266,6.162 18.7482,11.8936 27.6885,17.0283 8.9403,5.1348 17.8986,9.6702 27.7906,13.4355 4.9461,1.8826 10.1257,3.5738 15.6545,5.0499 5.5287,1.4761 11.4053,2.7374 17.7465,3.7642 5.8152,0.9418 12.1439,1.6296 18.828,2.159 1.3397,0.098 2.6874,0.1896 4.0446,0.2733 6.7657,0.4373 13.8479,0.7343 21.6588,0.7343 h 0.081 c 12.1632,0 22.2139,-1.8292 33.1207,-2.935 44.0618,-5.1733 68.4022,-19.5619 100.2097,-39.5071 14.7401,-9.2429 31.5121,-19.4496 51.3581,-28.5966 13.2305,-6.098 27.8277,-11.7248 44.1006,-16.2823 6.8627,-1.9221 15.3563,-2.6639 22.838,-4.1604 0.1704,-0.046 0.292,-0.1281 0.4632,-0.1737 0.3388,-0.09 0.9304,-0.052 1.2718,-0.1415 9.7541,-1.8914 18.6926,-4.3945 29.581,-5.3879 9.9654,-0.9093 20.4266,-1.4013 31.4227,-1.4015 v 0 0 c 87.9828,0 141.7359,31.4961 181.0424,56.1439 19.6532,12.3238 35.6947,22.9331 55.4791,30.4638 4.946,1.8826 10.1259,3.5736 15.6546,5.0498 3.5723,0.9537 7.5722,1.6631 11.4664,2.4323 15.6874,2.4556 31.9882,4.4647 50.5358,4.4799 0.1067,10e-5 0.1685,0.019 0.2756,0.019 69.2436,0 94.1048,-17.7966 133.4116,-42.4442 14.74,-9.243 31.512,-19.4494 51.3581,-28.5965 13.2305,-6.098 27.8277,-11.7249 44.1005,-16.2824 4.0683,-1.1394 8.2403,-2.2122 12.5227,-3.2083 4.2827,-0.9964 8.6743,-1.9152 13.1807,-2.7497 4.7186,-0.8737 9.9197,-1.3698 14.8948,-2.0454 0.1607,-0.026 0.2904,-0.068 0.4516,-0.095 0.1452,-0.025 0.364,-0.014 0.5097,-0.037 4.2211,-0.5597 8.1825,-1.3256 12.5945,-1.7282 4.9834,-0.4544 10.0917,-0.8055 15.3281,-1.0422 5.2355,-0.2367 10.5989,-0.3591 16.0968,-0.3593 v 0 c 87.9831,0 141.7358,31.4961 181.0426,56.1439 9.8266,6.1619 18.7504,11.8936 27.6907,17.0282 9.8715,5.6697 20.8302,9.6286 31.9787,13.6069 12.5362,3.1328 22.9398,7.6446 37.5219,9.2334 10.9047,1.3801 22.14,2.5758 36.2201,2.5758 69.2434,0 94.1048,-17.7967 133.4113,-42.4443 30.1511,-18.9066 69.7935,-41.0617 125.8738,-50.7209 3.4915,-0.7797 6.8347,-1.641 10.6349,-2.2563 6.3412,-1.0268 13.1449,-1.8187 20.5284,-2.3535 1.8328,-0.1329 4.052,-0.1013 5.9578,-0.2015 0.7065,-0.037 1.2347,-0.2203 1.9459,-0.2524 5.234,-0.2366 10.596,-0.3591 16.0924,-0.3593 v 0 0 c 87.983,0 87.9477,-89.641 -0.035,-89.641 -5.499,0 -10.8633,0.1224 -16.0995,0.3591 -78.5447,3.5506 -128.0909,32.6774 -164.9407,55.7848 -39.3067,24.6478 -64.168,42.4466 -133.4114,42.4466 -17.3109,0 -31.8493,-1.1127 -44.5316,-3.1666 -6.3412,-1.0268 -12.2176,-2.288 -17.7463,-3.7641 -16.5862,-4.4285 -30.0324,-10.7832 -43.4428,-18.4853 -8.9402,-5.1347 -17.8641,-10.8687 -27.6908,-17.0306 -39.3066,-24.648 -93.0595,-56.1439 -181.0424,-56.1439 -5.4989,0 -10.863,0.1224 -16.0993,0.3591 -5.2363,0.2367 -10.3446,0.5878 -15.3281,1.0422 -9.9667,0.9095 -19.4375,2.2367 -28.4505,3.9057 -4.5064,0.8345 -8.898,1.7533 -13.1807,2.7498 -4.2825,0.9961 -8.4544,2.0687 -12.5227,3.2081 -16.2729,4.5575 -30.8702,10.1844 -44.1008,16.2824 -19.8458,9.1471 -36.6179,19.3537 -51.358,28.5966 -39.3065,24.6478 -64.1679,42.4466 -133.4115,42.4466 -17.3108,0 -31.849,-1.1127 -44.5314,-3.1666 -6.3411,-1.0268 -12.2176,-2.288 -17.7464,-3.7641 -5.5286,-1.4762 -10.7085,-3.1672 -15.6547,-5.0499 -19.7842,-7.5307 -35.8257,-18.1419 -55.4789,-30.466 -39.3066,-24.648 -93.0596,-56.1439 -181.0424,-56.1439 -10.9978,0 -21.4605,0.4921 -31.4271,1.4013 -19.9337,1.8189 -37.8815,5.306 -54.1543,9.8636 -16.273,4.5575 -30.8701,10.1844 -44.1006,16.2824 -19.8459,9.1471 -36.618,19.3537 -51.358,28.5966 -34.3933,21.567 -57.7268,37.8897 -109.4107,41.6336 -7.3834,0.5349 -15.3453,0.813 -24.0008,0.813 -8.6554,0 -16.6174,-0.2781 -24.0008,-0.813 -7.3835,-0.5348 -14.1894,-1.3266 -20.5307,-2.3536 -6.3411,-1.0268 -12.2178,-2.288 -17.7464,-3.7641 -5.5288,-1.4762 -10.7084,-3.1672 -15.6545,-5.0499 -9.892,-3.7655 -18.8503,-8.3007 -27.7906,-13.4354 -8.9402,-5.1347 -17.8619,-10.8687 -27.6885,-17.0306 -39.3067,-24.648 -93.0595,-56.1439 -181.0424,-56.1439 -10.9979,0 -21.4605,0.4921 -31.4274,1.4013 -14.95,1.3643 -28.7837,3.6665 -41.6312,6.6555 -4.2824,0.9961 -8.4545,2.0687 -12.5227,3.2081 -8.1365,2.2787 -15.8552,4.8246 -23.1923,7.5633 -22.0119,8.2164 -40.601,18.1671 -56.8111,27.8275 -5.4033,3.2202 -10.5421,6.4072 -15.4555,9.4882 -34.3932,21.567 -57.7269,37.8897 -109.4107,41.6336 -7.3834,0.5349 -15.3452,0.813 -24.0007,0.813 -43.2772,0 -69.2197,-6.952 -92.1855,-18.1841 -4.5933,-2.2463 -9.0672,-4.6645 -13.5374,-7.2319 -8.9402,-5.1347 -17.8643,-10.8687 -27.6909,-17.0306 -39.3066,-24.648 -93.057,-56.1439 -181.0401,-56.1439 -5.4989,0 -10.863,0.1224 -16.0994,0.3591 -5.2363,0.2367 -10.3446,0.5878 -15.328,1.0422 -4.9833,0.4549 -9.8419,1.0141 -14.582,1.6681 -14.2202,1.9617 -27.3673,4.7772 -39.5718,8.1955 -32.5458,9.1151 -58.3901,22.5104 -80.0034,35.3908 -5.4035,3.2202 -10.5421,6.4072 -15.4554,9.4882 -39.3066,24.6478 -64.168,42.4466 -133.4115,42.4466 -25.9663,0 -45.69169,-2.5022 -62.27781,-6.9307 -16.58623,-4.4285 -30.03472,-10.7832 -43.44512,-18.4853 -8.94009,-5.1347 -17.86421,-10.8687 -27.69086,-17.0306 -39.30668,-24.648 -93.05727,-56.1439 -181.04003,-56.1439 -5.49898,0 -10.86289,0.1224 -16.09935,0.3591 -5.23623,0.2367 -10.34455,0.5878 -15.32804,1.0422 -4.98328,0.4549 -9.84195,1.0141 -14.58206,1.6681 -42.66083,5.8855 -75.66497,19.461 -102.53322,33.9035 -5.97066,3.2094 -11.63873,6.4626 -17.04205,9.6828 -5.40344,3.2202 -10.54192,6.4072 -15.4553,9.4882 -39.30657,24.6478 -64.16812,42.4466 -133.41156,42.4466 -17.31085,0 -17.08498,89.6342 0.0575,89.6342 z" />
        </g>
      </g>
      <circle
         style="fill:url(#linearGradient704);fill-opacity:1;stroke:none;stroke-width:58.168;stroke-linecap:butt;stroke-miterlimit:0;stroke-dasharray:none"
         id="path132"
         cx="2214.1028"
         cy="2363.96"
         r="310.1142" />
      <text
         xml:space="preserve"
         style="font-style:normal;font-variant:normal;font-weight:bold;font-stretch:normal;font-size:151.308px;line-height:0;font-family:'HelveticaNeue 07472';-inkscape-font-specification:'HelveticaNeue 07472 Bold';text-align:start;letter-spacing:-4.22355px;word-spacing:0px;writing-mode:lr-tb;direction:ltr;text-anchor:start;display:inline;fill:url(#swatch704);stroke:none;stroke-width:12.8016;stroke-linecap:butt;stroke-linejoin:miter;stroke-dasharray:none;paint-order:normal"
         id="text2667-2"
         x="434.35474"
         y="1921.5499"><tspan
           style="font-size:149.039px;letter-spacing:-4.22355px;fill:url(#swatch704)"
           id="tspan879"
           dy="0"> </tspan></text>
    </g>
  </g>
</svg>
